<svg id="Capa_1" enable-background="new 0 0 510.225 510.225" height="512" viewBox="0 0 510.225 510.225" width="512" xmlns="http://www.w3.org/2000/svg"><g><path d="m432.807 260.007h-87.621c-6.368 0-11.529-5.162-11.529-11.529v-70.506c0-6.367 5.162-11.529 11.529-11.529h87.622c6.367 0 11.529 5.162 11.529 11.529v70.506c-.001 6.367-5.163 11.529-11.53 11.529z" fill="#eaa895"/><path d="m478.163 402.56h-353.133c-13.281 0-24.048-10.767-24.048-24.048v-103.014c0-13.281 10.767-24.048 24.048-24.048h353.133c13.281 0 24.048 10.767 24.048 24.048v103.014c0 13.282-10.767 24.048-24.048 24.048z" fill="#e9c278"/><g fill="#f9fbfc"><path d="m494.673 341.615c-1.696 0-3.07 1.375-3.07 3.07 0 1.696 1.375 3.07 3.07 3.07 1.696 0 3.07-1.375 3.07-3.07.001-1.695-1.374-3.07-3.07-3.07z"/><path d="m494.673 361.408c-1.696 0-3.07 1.375-3.07 3.07s1.375 3.07 3.07 3.07c1.696 0 3.07-1.375 3.07-3.07.001-1.695-1.374-3.07-3.07-3.07z"/><path d="m494.673 381.202c-1.696 0-3.07 1.375-3.07 3.07 0 1.696 1.375 3.07 3.07 3.07 1.696 0 3.07-1.375 3.07-3.07.001-1.695-1.374-3.07-3.07-3.07z"/><path d="m485.149 331.345c-1.696 0-3.07 1.375-3.07 3.07 0 1.696 1.375 3.07 3.07 3.07 1.696 0 3.07-1.375 3.07-3.07.001-1.695-1.374-3.07-3.07-3.07z"/><path d="m494.657 321.837c-1.696 0-3.07 1.374-3.07 3.07s1.375 3.07 3.07 3.07c1.696 0 3.07-1.375 3.07-3.07.001-1.695-1.374-3.07-3.07-3.07z"/><path d="m474.88 341.615c-1.696 0-3.07 1.375-3.07 3.07 0 1.696 1.374 3.07 3.07 3.07s3.07-1.375 3.07-3.07-1.374-3.07-3.07-3.07z"/><circle cx="485.149" cy="354.209" r="3.07"/><path d="m474.88 367.549c1.696 0 3.07-1.375 3.07-3.07 0-1.696-1.374-3.07-3.07-3.07s-3.07 1.375-3.07 3.07 1.374 3.07 3.07 3.07z"/><path d="m485.149 370.933c-1.696 0-3.07 1.375-3.07 3.07 0 1.696 1.375 3.07 3.07 3.07 1.696 0 3.07-1.375 3.07-3.07.001-1.696-1.374-3.07-3.07-3.07z"/><path d="m474.88 387.343c1.696 0 3.07-1.375 3.07-3.07s-1.374-3.07-3.07-3.07-3.07 1.375-3.07 3.07 1.374 3.07 3.07 3.07z"/><circle cx="485.149" cy="393.797" r="3.07"/><path d="m465.356 337.486c1.696 0 3.07-1.375 3.07-3.07s-1.375-3.07-3.07-3.07c-1.696 0-3.07 1.375-3.07 3.07-.001 1.695 1.374 3.07 3.07 3.07z"/><circle cx="455.086" cy="344.685" r="3.07"/><circle cx="465.356" cy="354.209" r="3.07"/><circle cx="455.086" cy="364.479" r="3.07"/><path d="m465.356 377.073c1.696 0 3.07-1.375 3.07-3.07s-1.375-3.07-3.07-3.07c-1.696 0-3.07 1.375-3.07 3.07-.001 1.695 1.374 3.07 3.07 3.07z"/><circle cx="455.086" cy="384.272" r="3.07"/><circle cx="465.356" cy="393.797" r="3.07"/><path d="m445.562 337.486c1.696 0 3.07-1.375 3.07-3.07s-1.375-3.07-3.07-3.07-3.07 1.375-3.07 3.07 1.374 3.07 3.07 3.07z"/><circle cx="435.292" cy="344.685" r="3.07"/><circle cx="445.562" cy="354.209" r="3.07"/><circle cx="435.292" cy="364.479" r="3.07"/><path d="m445.562 377.073c1.696 0 3.07-1.375 3.07-3.07s-1.375-3.07-3.07-3.07-3.07 1.375-3.07 3.07 1.374 3.07 3.07 3.07z"/><circle cx="435.292" cy="384.272" r="3.07"/><circle cx="445.562" cy="393.797" r="3.07"/><path d="m425.768 337.486c1.696 0 3.07-1.375 3.07-3.07s-1.374-3.07-3.07-3.07c-1.695 0-3.07 1.375-3.07 3.07s1.375 3.07 3.07 3.07z"/><path d="m415.499 347.755c1.696 0 3.07-1.375 3.07-3.07s-1.375-3.07-3.07-3.07c-1.696 0-3.07 1.375-3.07 3.07 0 1.696 1.374 3.07 3.07 3.07z"/><path d="m425.768 357.28c1.696 0 3.07-1.375 3.07-3.07s-1.374-3.07-3.07-3.07c-1.695 0-3.07 1.375-3.07 3.07s1.375 3.07 3.07 3.07z"/><path d="m415.499 367.549c1.696 0 3.07-1.375 3.07-3.07 0-1.696-1.375-3.07-3.07-3.07-1.696 0-3.07 1.375-3.07 3.07s1.374 3.07 3.07 3.07z"/><path d="m425.768 377.073c1.696 0 3.07-1.375 3.07-3.07s-1.374-3.07-3.07-3.07c-1.695 0-3.07 1.375-3.07 3.07s1.375 3.07 3.07 3.07z"/><path d="m415.499 387.343c1.696 0 3.07-1.375 3.07-3.07s-1.375-3.07-3.07-3.07c-1.696 0-3.07 1.375-3.07 3.07s1.374 3.07 3.07 3.07z"/><path d="m425.768 396.867c1.696 0 3.07-1.375 3.07-3.07s-1.374-3.07-3.07-3.07c-1.695 0-3.07 1.375-3.07 3.07s1.375 3.07 3.07 3.07z"/><path d="m405.975 337.486c1.696 0 3.07-1.375 3.07-3.07s-1.375-3.07-3.07-3.07c-1.696 0-3.07 1.375-3.07 3.07-.001 1.695 1.374 3.07 3.07 3.07z"/><path d="m395.705 347.755c1.696 0 3.07-1.375 3.07-3.07s-1.375-3.07-3.07-3.07c-1.696 0-3.07 1.375-3.07 3.07 0 1.696 1.374 3.07 3.07 3.07z"/><circle cx="405.975" cy="354.209" r="3.07"/><path d="m395.705 367.549c1.696 0 3.07-1.375 3.07-3.07 0-1.696-1.375-3.07-3.07-3.07-1.696 0-3.07 1.375-3.07 3.07s1.374 3.07 3.07 3.07z"/><path d="m405.975 377.073c1.696 0 3.07-1.375 3.07-3.07s-1.375-3.07-3.07-3.07c-1.696 0-3.07 1.375-3.07 3.07-.001 1.695 1.374 3.07 3.07 3.07z"/><path d="m395.705 387.343c1.696 0 3.07-1.375 3.07-3.07s-1.375-3.07-3.07-3.07c-1.696 0-3.07 1.375-3.07 3.07s1.374 3.07 3.07 3.07z"/><circle cx="405.975" cy="393.797" r="3.07"/><path d="m386.181 337.486c1.696 0 3.07-1.375 3.07-3.07s-1.375-3.07-3.07-3.07-3.07 1.375-3.07 3.07 1.374 3.07 3.07 3.07z"/><path d="m375.911 347.755c1.696 0 3.07-1.375 3.07-3.07s-1.375-3.07-3.07-3.07c-1.696 0-3.07 1.375-3.07 3.07 0 1.696 1.375 3.07 3.07 3.07z"/><circle cx="386.181" cy="354.209" r="3.07"/><path d="m375.911 367.549c1.696 0 3.07-1.375 3.07-3.07 0-1.696-1.375-3.07-3.07-3.07-1.696 0-3.07 1.375-3.07 3.07s1.375 3.07 3.07 3.07z"/><path d="m386.181 377.073c1.696 0 3.07-1.375 3.07-3.07s-1.375-3.07-3.07-3.07-3.07 1.375-3.07 3.07 1.374 3.07 3.07 3.07z"/><path d="m375.911 387.343c1.696 0 3.07-1.375 3.07-3.07s-1.375-3.07-3.07-3.07c-1.696 0-3.07 1.375-3.07 3.07s1.375 3.07 3.07 3.07z"/><circle cx="386.181" cy="393.797" r="3.07"/><path d="m366.387 337.486c1.696 0 3.07-1.375 3.07-3.07s-1.375-3.07-3.07-3.07-3.07 1.375-3.07 3.07 1.374 3.07 3.07 3.07z"/><circle cx="356.118" cy="344.685" r="3.07"/><path d="m366.387 357.28c1.696 0 3.07-1.375 3.07-3.07s-1.375-3.07-3.07-3.07-3.07 1.375-3.07 3.07 1.374 3.07 3.07 3.07z"/><circle cx="356.118" cy="364.479" r="3.07"/><path d="m366.387 377.073c1.696 0 3.07-1.375 3.07-3.07s-1.375-3.07-3.07-3.07-3.07 1.375-3.07 3.07 1.374 3.07 3.07 3.07z"/><circle cx="356.118" cy="384.272" r="3.07"/><path d="m366.387 396.867c1.696 0 3.07-1.375 3.07-3.07s-1.375-3.07-3.07-3.07-3.07 1.375-3.07 3.07 1.374 3.07 3.07 3.07z"/><path d="m346.594 337.486c1.696 0 3.07-1.375 3.07-3.07s-1.375-3.07-3.07-3.07c-1.696 0-3.07 1.375-3.07 3.07-.001 1.695 1.374 3.07 3.07 3.07z"/><circle cx="336.324" cy="344.685" r="3.07"/><path d="m346.594 357.28c1.696 0 3.07-1.375 3.07-3.07s-1.375-3.07-3.07-3.07c-1.696 0-3.07 1.375-3.07 3.07s1.374 3.07 3.07 3.07z"/><circle cx="336.324" cy="364.479" r="3.07"/><path d="m346.594 377.073c1.696 0 3.07-1.375 3.07-3.07s-1.375-3.07-3.07-3.07c-1.696 0-3.07 1.375-3.07 3.07-.001 1.695 1.374 3.07 3.07 3.07z"/><circle cx="336.324" cy="384.272" r="3.07"/><path d="m346.594 396.867c1.696 0 3.07-1.375 3.07-3.07s-1.375-3.07-3.07-3.07c-1.696 0-3.07 1.375-3.07 3.07s1.374 3.07 3.07 3.07z"/><path d="m326.8 337.486c1.696 0 3.07-1.375 3.07-3.07s-1.375-3.07-3.07-3.07c-1.696 0-3.07 1.375-3.07 3.07s1.374 3.07 3.07 3.07z"/><circle cx="316.53" cy="344.685" r="3.07"/><path d="m326.8 357.28c1.696 0 3.07-1.375 3.07-3.07s-1.375-3.07-3.07-3.07c-1.696 0-3.07 1.375-3.07 3.07s1.374 3.07 3.07 3.07z"/><path d="m307.006 337.486c1.696 0 3.07-1.375 3.07-3.07s-1.375-3.07-3.07-3.07c-1.696 0-3.07 1.375-3.07 3.07s1.375 3.07 3.07 3.07z"/><path d="m296.737 367.549c1.696 0 3.07-1.375 3.07-3.07 0-1.696-1.375-3.07-3.07-3.07-1.696 0-3.07 1.375-3.07 3.07-.001 1.695 1.374 3.07 3.07 3.07z"/><path d="m307.006 377.073c1.696 0 3.07-1.375 3.07-3.07s-1.375-3.07-3.07-3.07c-1.696 0-3.07 1.375-3.07 3.07s1.375 3.07 3.07 3.07z"/><path d="m296.737 387.343c1.696 0 3.07-1.375 3.07-3.07s-1.375-3.07-3.07-3.07c-1.696 0-3.07 1.375-3.07 3.07-.001 1.695 1.374 3.07 3.07 3.07z"/><path d="m307.006 396.867c1.696 0 3.07-1.375 3.07-3.07s-1.375-3.07-3.07-3.07c-1.696 0-3.07 1.375-3.07 3.07s1.375 3.07 3.07 3.07z"/><path d="m276.943 347.755c1.696 0 3.07-1.375 3.07-3.07s-1.374-3.07-3.07-3.07-3.07 1.375-3.07 3.07c0 1.696 1.374 3.07 3.07 3.07z"/><path d="m287.212 357.28c1.696 0 3.07-1.375 3.07-3.07s-1.375-3.07-3.07-3.07c-1.696 0-3.07 1.375-3.07 3.07s1.375 3.07 3.07 3.07z"/><path d="m276.943 367.549c1.696 0 3.07-1.375 3.07-3.07 0-1.696-1.374-3.07-3.07-3.07s-3.07 1.375-3.07 3.07 1.374 3.07 3.07 3.07z"/><path d="m287.212 377.073c1.696 0 3.07-1.375 3.07-3.07s-1.375-3.07-3.07-3.07c-1.696 0-3.07 1.375-3.07 3.07s1.375 3.07 3.07 3.07z"/><path d="m276.943 387.343c1.696 0 3.07-1.375 3.07-3.07s-1.374-3.07-3.07-3.07-3.07 1.375-3.07 3.07 1.374 3.07 3.07 3.07z"/><path d="m287.212 396.867c1.696 0 3.07-1.375 3.07-3.07s-1.375-3.07-3.07-3.07c-1.696 0-3.07 1.375-3.07 3.07s1.375 3.07 3.07 3.07z"/><path d="m267.419 337.486c1.696 0 3.07-1.375 3.07-3.07s-1.375-3.07-3.07-3.07c-1.696 0-3.07 1.375-3.07 3.07-.001 1.695 1.374 3.07 3.07 3.07z"/><path d="m257.149 347.755c1.696 0 3.07-1.375 3.07-3.07s-1.374-3.07-3.07-3.07-3.07 1.375-3.07 3.07c0 1.696 1.375 3.07 3.07 3.07z"/><path d="m267.419 357.28c1.696 0 3.07-1.375 3.07-3.07s-1.375-3.07-3.07-3.07c-1.696 0-3.07 1.375-3.07 3.07s1.374 3.07 3.07 3.07z"/><path d="m257.149 367.549c1.696 0 3.07-1.375 3.07-3.07 0-1.696-1.374-3.07-3.07-3.07s-3.07 1.375-3.07 3.07 1.375 3.07 3.07 3.07z"/><path d="m267.419 377.073c1.696 0 3.07-1.375 3.07-3.07s-1.375-3.07-3.07-3.07c-1.696 0-3.07 1.375-3.07 3.07-.001 1.695 1.374 3.07 3.07 3.07z"/><path d="m257.149 387.343c1.696 0 3.07-1.375 3.07-3.07s-1.374-3.07-3.07-3.07-3.07 1.375-3.07 3.07 1.375 3.07 3.07 3.07z"/><path d="m267.419 396.867c1.696 0 3.07-1.375 3.07-3.07s-1.375-3.07-3.07-3.07c-1.696 0-3.07 1.375-3.07 3.07s1.374 3.07 3.07 3.07z"/><path d="m247.625 337.486c1.696 0 3.07-1.375 3.07-3.07s-1.375-3.07-3.07-3.07c-1.696 0-3.07 1.375-3.07 3.07s1.374 3.07 3.07 3.07z"/><path d="m237.356 347.755c1.696 0 3.07-1.375 3.07-3.07s-1.375-3.07-3.07-3.07c-1.696 0-3.07 1.375-3.07 3.07-.001 1.696 1.374 3.07 3.07 3.07z"/><circle cx="247.625" cy="354.209" r="3.07"/><path d="m237.356 367.549c1.696 0 3.07-1.375 3.07-3.07 0-1.696-1.375-3.07-3.07-3.07-1.696 0-3.07 1.375-3.07 3.07-.001 1.695 1.374 3.07 3.07 3.07z"/><path d="m247.625 377.073c1.696 0 3.07-1.375 3.07-3.07s-1.375-3.07-3.07-3.07c-1.696 0-3.07 1.375-3.07 3.07s1.374 3.07 3.07 3.07z"/><path d="m227.831 337.486c1.696 0 3.07-1.375 3.07-3.07s-1.375-3.07-3.07-3.07-3.07 1.375-3.07 3.07 1.375 3.07 3.07 3.07z"/><path d="m217.562 347.755c1.696 0 3.07-1.375 3.07-3.07s-1.375-3.07-3.07-3.07c-1.696 0-3.07 1.375-3.07 3.07 0 1.696 1.374 3.07 3.07 3.07z"/><circle cx="227.831" cy="354.209" r="3.07"/><path d="m217.562 367.549c1.696 0 3.07-1.375 3.07-3.07 0-1.696-1.375-3.07-3.07-3.07-1.696 0-3.07 1.375-3.07 3.07s1.374 3.07 3.07 3.07z"/><path d="m227.831 377.073c1.696 0 3.07-1.375 3.07-3.07s-1.375-3.07-3.07-3.07-3.07 1.375-3.07 3.07 1.375 3.07 3.07 3.07z"/><path d="m217.562 387.343c1.696 0 3.07-1.375 3.07-3.07s-1.375-3.07-3.07-3.07c-1.696 0-3.07 1.375-3.07 3.07s1.374 3.07 3.07 3.07z"/><path d="m197.768 347.755c1.696 0 3.07-1.375 3.07-3.07s-1.375-3.07-3.07-3.07c-1.696 0-3.07 1.375-3.07 3.07 0 1.696 1.375 3.07 3.07 3.07z"/><circle cx="208.038" cy="354.209" r="3.07"/><path d="m197.768 367.549c1.696 0 3.07-1.375 3.07-3.07 0-1.696-1.375-3.07-3.07-3.07-1.696 0-3.07 1.375-3.07 3.07s1.375 3.07 3.07 3.07z"/><path d="m208.038 377.073c1.696 0 3.07-1.375 3.07-3.07s-1.375-3.07-3.07-3.07c-1.696 0-3.07 1.375-3.07 3.07-.001 1.695 1.374 3.07 3.07 3.07z"/><path d="m197.768 387.343c1.696 0 3.07-1.375 3.07-3.07s-1.375-3.07-3.07-3.07c-1.696 0-3.07 1.375-3.07 3.07s1.375 3.07 3.07 3.07z"/><circle cx="208.038" cy="393.797" r="3.07"/><path d="m188.244 357.28c1.696 0 3.07-1.375 3.07-3.07s-1.375-3.07-3.07-3.07c-1.696 0-3.07 1.375-3.07 3.07s1.374 3.07 3.07 3.07z"/><path d="m177.975 367.549c1.696 0 3.07-1.375 3.07-3.07 0-1.696-1.375-3.07-3.07-3.07-1.696 0-3.07 1.375-3.07 3.07-.001 1.695 1.374 3.07 3.07 3.07z"/><path d="m188.244 377.073c1.696 0 3.07-1.375 3.07-3.07s-1.375-3.07-3.07-3.07c-1.696 0-3.07 1.375-3.07 3.07s1.374 3.07 3.07 3.07z"/><path d="m177.975 387.343c1.696 0 3.07-1.375 3.07-3.07s-1.375-3.07-3.07-3.07c-1.696 0-3.07 1.375-3.07 3.07-.001 1.695 1.374 3.07 3.07 3.07z"/><path d="m188.244 396.867c1.696 0 3.07-1.375 3.07-3.07s-1.375-3.07-3.07-3.07c-1.696 0-3.07 1.375-3.07 3.07s1.374 3.07 3.07 3.07z"/><path d="m168.45 396.867c1.696 0 3.07-1.375 3.07-3.07s-1.375-3.07-3.07-3.07c-1.696 0-3.07 1.375-3.07 3.07s1.375 3.07 3.07 3.07z"/><path d="m148.657 337.486c1.696 0 3.07-1.375 3.07-3.07s-1.375-3.07-3.07-3.07c-1.696 0-3.07 1.375-3.07 3.07-.001 1.695 1.374 3.07 3.07 3.07z"/><path d="m138.387 347.755c1.696 0 3.07-1.375 3.07-3.07s-1.374-3.07-3.07-3.07-3.07 1.375-3.07 3.07c0 1.696 1.375 3.07 3.07 3.07z"/><circle cx="148.657" cy="354.209" r="3.07"/><path d="m138.387 367.549c1.696 0 3.07-1.375 3.07-3.07 0-1.696-1.374-3.07-3.07-3.07s-3.07 1.375-3.07 3.07 1.375 3.07 3.07 3.07z"/><path d="m138.387 387.343c1.696 0 3.07-1.375 3.07-3.07s-1.374-3.07-3.07-3.07-3.07 1.375-3.07 3.07 1.375 3.07 3.07 3.07z"/><path d="m128.863 337.486c1.696 0 3.07-1.375 3.07-3.07s-1.375-3.07-3.07-3.07c-1.696 0-3.07 1.375-3.07 3.07s1.374 3.07 3.07 3.07z"/><path d="m118.593 341.615c-1.696 0-3.07 1.375-3.07 3.07 0 1.696 1.375 3.07 3.07 3.07 1.696 0 3.07-1.375 3.07-3.07.001-1.695-1.374-3.07-3.07-3.07z"/><circle cx="128.863" cy="354.209" r="3.07"/><path d="m118.593 367.549c1.696 0 3.07-1.375 3.07-3.07 0-1.696-1.375-3.07-3.07-3.07-1.696 0-3.07 1.375-3.07 3.07s1.375 3.07 3.07 3.07z"/><path d="m128.863 377.073c1.696 0 3.07-1.375 3.07-3.07s-1.375-3.07-3.07-3.07c-1.696 0-3.07 1.375-3.07 3.07s1.374 3.07 3.07 3.07z"/><path d="m118.593 387.343c1.696 0 3.07-1.375 3.07-3.07s-1.375-3.07-3.07-3.07c-1.696 0-3.07 1.375-3.07 3.07s1.375 3.07 3.07 3.07z"/><circle cx="128.863" cy="393.797" r="3.07"/><path d="m109.069 331.345c-1.696 0-3.07 1.375-3.07 3.07 0 1.696 1.375 3.07 3.07 3.07s3.07-1.375 3.07-3.07c.001-1.695-1.374-3.07-3.07-3.07z"/><circle cx="109.069" cy="354.209" r="3.07"/><path d="m109.069 370.933c-1.696 0-3.07 1.375-3.07 3.07 0 1.696 1.375 3.07 3.07 3.07s3.07-1.375 3.07-3.07c.001-1.696-1.374-3.07-3.07-3.07z"/><path d="m109.315 396.842c1.578-.127 2.824-1.434 2.824-3.045 0-1.696-1.375-3.07-3.07-3.07-1.565 0-2.843 1.176-3.032 2.69.977 1.248 2.075 2.395 3.278 3.425z"/></g><g fill="#eaa895"><path d="m236.048 305.623c-53.86 0-97.522 43.662-97.522 97.522s43.662 97.522 97.522 97.522 97.522-43.662 97.522-97.522-43.662-97.522-97.522-97.522zm0 170.633c-40.378 0-73.11-32.733-73.11-73.111s32.733-73.11 73.11-73.11 73.111 32.732 73.111 73.11c-.001 40.378-32.733 73.111-73.111 73.111z"/><circle cx="236.048" cy="403.145" r="21.46"/><ellipse cx="428.949" cy="467.467" rx="33.141" ry="33.141" transform="matrix(.23 -.973 .973 .23 -124.565 777.539)"/></g><ellipse cx="428.949" cy="467.467" fill="#31373d" rx="14.734" ry="14.734" transform="matrix(.23 -.973 .973 .23 -124.565 777.539)"/><path d="m178.691 94.515c0 22.567-18.294 40.862-40.862 40.862-22.567 0-40.862-18.294-40.862-40.862" fill="#e9c278"/><path d="m261.056 94.515c0 22.567-18.294 40.862-40.861 40.862s-40.862-18.294-40.862-40.862" fill="#f9fbfc"/><path d="m342.779 94.515c0 22.567-18.294 40.862-40.862 40.862-22.567 0-40.862-18.294-40.862-40.862" fill="#e9c278"/><path d="m424.502 94.515c0 22.567-18.294 40.862-40.862 40.862-22.567 0-40.862-18.294-40.862-40.862" fill="#f9fbfc"/><path d="m506.225 94.515c0 22.567-18.294 40.862-40.862 40.862-22.567 0-40.861-18.294-40.861-40.862" fill="#e9c278"/><path d="m179.758 9.557-3.184 84.914h85.316v-84.914z" fill="#f9fbfc"/><path d="m261.89 9.557v84.914h82.447l-.624-84.914z" fill="#e9c278"/><path d="m484.806 9.557h-62.202l4.68 84.914h78.941l-8.413-73.315c-.758-6.609-6.353-11.599-13.006-11.599z" fill="#e9c278"/><path d="m343.713 9.557.624 84.914h82.948l-4.681-84.914z" fill="#f9fbfc"/><path d="m104.699 21.908-7.732 72.563h79.607l3.184-84.914h-61.322c-7.063 0-12.988 5.328-13.737 12.351z" fill="#e9c278"/><g fill="#31373d"><path d="m478.163 247.449h-15.039v-108.135c.743.037 1.488.062 2.24.062 24.737 0 44.861-20.125 44.861-44.861 0-.081-.019-.155-.024-.235-.004-.088.008-.176-.002-.265l-8.272-72.091c-1.071-9.33-8.96-16.366-18.353-16.366h-364.546c-9.468 0-17.365 7.1-18.369 16.515l-7.669 71.974c-.009.083.003.164 0 .247-.004.074-.022.145-.022.221 0 24.736 20.124 44.861 44.861 44.861.752 0 1.497-.025 2.24-.062v108.135h-15.039c-8.038 0-15.292 3.404-20.41 8.84l-24.49-32.016c-2.613-3.414-6.739-5.452-11.037-5.452h-55.196c-7.663.001-13.897 6.235-13.897 13.897 0 7.663 6.234 13.897 13.897 13.897h48.329l34.756 45.437v86.46c0 15.466 12.582 28.049 28.048 28.049h9.56c1.808 54.404 46.622 98.107 101.458 98.107s99.65-43.702 101.458-98.107h74.59v27.825c-12.029 6.153-20.289 18.667-20.289 33.081 0 20.479 16.662 37.141 37.141 37.141 20.48 0 37.142-16.661 37.142-37.141 0-14.116-7.916-26.416-19.542-32.698v-28.208h31.615c15.466 0 28.048-12.583 28.048-28.049v-103.015c0-15.466-12.582-28.048-28.048-28.048zm-132.978-85.006c-8.563 0-15.529 6.967-15.529 15.529v69.478h-155.615v-126.5c1.961-2.68 3.635-5.581 4.97-8.663 6.897 15.92 22.757 27.089 41.183 27.089 18.15 0 33.804-10.84 40.861-26.38 7.057 15.54 22.712 26.38 40.862 26.38s33.805-10.84 40.861-26.38c7.057 15.54 22.712 26.38 40.862 26.38s33.805-10.84 40.861-26.38c1.279 2.815 2.843 5.474 4.649 7.944v41.503zm83.966 8v77.007h-91.496v-69.478c0-4.151 3.377-7.529 7.529-7.529zm-245.603-71.972h73.293c-1.98 18.471-17.658 32.905-36.646 32.905-18.99 0-34.667-14.434-36.647-32.905zm81.723 0h73.293c-1.98 18.471-17.658 32.905-36.646 32.905-18.989 0-34.667-14.434-36.647-32.905zm81.723 0h73.293c-1.98 18.471-17.658 32.905-36.646 32.905-18.989 0-34.666-14.434-36.647-32.905zm155.016 0c-1.98 18.471-17.658 32.905-36.646 32.905-18.989 0-34.666-14.434-36.647-32.905zm-393.396-75.551c.569-5.337 5.046-9.362 10.414-9.362h364.546c5.325 0 9.797 3.989 10.404 9.278l7.761 67.635h-400.323zm-7.432 75.551h73.293c-1.98 18.471-17.658 32.905-36.647 32.905-18.988 0-34.665-14.434-36.646-32.905zm134.866 398.196c-51.568 0-93.522-41.953-93.522-93.522s41.954-93.522 93.522-93.522 93.522 41.954 93.522 93.522-41.954 93.522-93.522 93.522zm222.042-29.2c0 16.068-13.073 29.141-29.142 29.141-16.068 0-29.141-13.072-29.141-29.141 0-16.068 13.073-29.142 29.141-29.142 16.069 0 29.142 13.074 29.142 29.142zm40.121-88.955c0 11.055-8.994 20.049-20.048 20.049h-140.701c-2.406-53.859-46.971-96.938-101.414-96.938s-99.007 43.078-101.414 96.938h-9.604c-11.054 0-20.048-8.994-20.048-20.049v-103.015c0-11.055 8.994-20.048 20.048-20.048h353.133c11.055 0 20.048 8.993 20.048 20.048z"/><path d="m236.048 326.035c-42.519 0-77.11 34.592-77.11 77.11s34.591 77.11 77.11 77.11 77.11-34.592 77.11-77.11-34.591-77.11-77.11-77.11zm0 146.221c-36.962 0-67.237-29.169-69.024-65.695h43.799c1.675 12.429 12.344 22.045 25.225 22.045 12.88 0 23.55-9.616 25.225-22.045h43.799c-1.787 36.527-32.062 65.695-69.024 65.695zm-17.461-69.11c0-9.628 7.833-17.461 17.461-17.461s17.46 7.833 17.46 17.461-7.833 17.46-17.46 17.46-17.461-7.832-17.461-17.46zm42.5-4.585c-2.166-11.857-12.566-20.876-25.039-20.876s-22.873 9.019-25.039 20.876h-43.902c2.37-35.976 32.376-64.525 68.941-64.525s66.571 28.549 68.941 64.525z"/></g><path d="m405.251 196.653h-54.955c-2.209 0-4-1.791-4-4s1.791-4 4-4h54.955c2.209 0 4 1.791 4 4s-1.791 4-4 4z" fill="#31373d"/><path d="m405.251 222.248h-54.955c-2.209 0-4-1.791-4-4s1.791-4 4-4h54.955c2.209 0 4 1.791 4 4s-1.791 4-4 4z" fill="#31373d"/></g></svg>